<?xml version="1.0" encoding="UTF-8" standalone="no"?>
<svg
   xmlns="http://www.w3.org/2000/svg"
   height="64"
   width="64"
   version="1.1"
>
  <g
     transform="rotate(-15,31.985817,31.977259)"
     id="g6">
    <path
       d="M 63.033,39.744 C 58.759,56.887 41.396,67.32 24.251,63.045 7.113,58.771 -3.32,41.407 0.956,24.265 5.228,7.12 22.591,-3.314 39.731,0.96 56.875,5.234 67.307,22.6 63.033,39.744 Z"
       fill="#e8b321" />
    <path
       d="m 46.178076,27.68166 c 0.711215,-4.246235 -2.490343,-6.591467 -6.896018,-8.195601 l 1.538447,-5.742025 -3.495194,-0.936142 -1.4978,5.590712 C 34.908666,18.15253 33.964597,17.919018 33.026493,17.687611 L 34.534937,12.06008 31.041742,11.123973 29.502331,16.86398 C 28.741484,16.676673 27.9946,16.49161 27.269869,16.297932 l 0.0043,-0.01793 -4.820163,-1.293321 -0.999304,3.733129 c 0,0 2.594184,0.642372 2.538547,0.678407 1.415588,0.379763 1.656126,1.325105 1.600113,2.070241 l -1.75243,6.541412 c 0.09755,0.02671 0.223901,0.06492 0.362902,0.123352 -0.116476,-0.03104 -0.240898,-0.06521 -0.369338,-0.09846 l -2.456299,9.163527 c -0.181513,0.428897 -0.633755,1.069102 -1.623311,0.805792 0.03411,0.0516 -2.540494,-0.681442 -2.540494,-0.681442 l -1.812876,3.987969 4.548426,1.218566 c 0.846153,0.227802 1.675135,0.465306 2.491345,0.689585 l -1.554596,5.807753 3.491195,0.936073 1.539516,-5.746007 c 0.953316,0.27668 1.878986,0.532874 2.784903,0.774721 l -1.534045,5.719098 3.495194,0.936142 1.554404,-5.796754 c 5.966315,1.237315 10.475605,0.858955 12.464821,-4.522148 1.60286,-4.332686 0.044,-6.875279 -3.076902,-8.570004 2.302883,-0.488884 4.056956,-1.967497 4.572285,-5.075976 z m -8.217101,11.107283 c -1.160927,4.3404 -8.459673,1.855641 -10.828997,1.223195 l 2.062596,-7.694175 c 2.369271,0.635446 9.979585,1.944464 8.766401,6.47098 z m 1.283257,-11.291324 c -1.059066,3.948119 -7.132969,1.826791 -9.106045,1.298276 l 1.870075,-6.978426 c 1.973077,0.528516 8.339013,1.561774 7.23597,5.68015 z"
       fill="#ffffff" />
  </g>
</svg>
